# xmcd
#
# Track frame offsets: 
#        150
#        13800
#        23483
#        35363
#        46645
#        57493
#        71317
#        82323
#        94130
#        106330
#        121839
#        134066
#        148376
#        159680
#        175099
#        190072
#        203629
#        213051
#
# Disc length: 3014 seconds
#
# Revision: 1
# Processed by: cddbd v1.5.2PL0 Copyright (c) Steve Scherf et al.
# Submitted via: ExactAudioCopy v1.0b3
#
DISCID=f90bc412
DTITLE=The Unkool Hillbillies - Evil Times
DYEAR=2009
DGENRE=Country
TTITLE0=Dangling On A String
TTITLE1=Another Day Another Lie
TTITLE2=Sarah
TTITLE3=Wake Up
TTITLE4=I Ain't Mad At You
TTITLE5=Just Your Fool
TTITLE6=I'll Do My Best
TTITLE7=Jump Start My Heart
TTITLE8=Linda Lee
TTITLE9=Rock This Joint
TTITLE10=Evil Times
TTITLE11=It Hurts Me Too
TTITLE12=You're The One
TTITLE13=Dirty
TTITLE14=Tore Up (Live)
TTITLE15=Blisters (Live)
TTITLE16=Stampen Boogie (Live)
TTITLE17=Tell Me (Bonus)
EXTD=
EXTT0=
EXTT1=
EXTT2=
EXTT3=
EXTT4=
EXTT5=
EXTT6=
EXTT7=
EXTT8=
EXTT9=
EXTT10=
EXTT11=
EXTT12=
EXTT13=
EXTT14=
EXTT15=
EXTT16=
EXTT17=
PLAYORDER=
